<?xml version="1.0" encoding="utf-8"?><svg xmlns="http://www.w3.org/2000/svg" xmlns:xlink="http://www.w3.org/1999/xlink"><symbol viewBox="0 0 27 12" id="arrow-icon" xmlns="http://www.w3.org/2000/svg"><defs><path id="aa" d="M151.87 5523.83h-15.9c-.55 0-1 .47-1 1.05 0 .58.45 1.04 1 1.04h15.9v2.1c0 .8.85 1.3 1.5.9l4.98-3.15c.64-.4.64-1.39 0-1.8l-4.97-3.13c-.66-.42-1.5.08-1.5.9z"/></defs><use xlink:href="#aa" transform="translate(-133 -5519)"/></symbol><symbol viewBox="0 0 26 27" id="clock-icon-gradient" xmlns="http://www.w3.org/2000/svg"><defs><path id="ba" d="M177 2358.99a12 12 0 1 1 0-24 12 12 0 0 1 0 24zm0-21a9 9 0 1 0 0 18 9 9 0 0 0 0-18zm6 10.5h-6a1.5 1.5 0 0 1-1.5-1.49v-6.03a1.5 1.5 0 0 1 3 0v4.52h4.5a1.5 1.5 0 0 1 0 3z"/></defs><use xlink:href="#ba" transform="translate(-164 -2333)"/></symbol><symbol viewBox="0 0 28 24" id="inbox-icon" xmlns="http://www.w3.org/2000/svg"><defs><path id="ca" d="M729 1175.02h-18a3 3 0 0 1-3.01-3v-7.5c0-.17.02-.33.07-.48l2.77-8.3a2.62 2.62 0 0 1 2.43-1.73h13.48c1.1.02 2.06.7 2.43 1.73l2.77 8.3c.05.15.07.31.07.47v7.52a3 3 0 0 1-3.01 2.99zm-2.57-18h-12.86l-2 6h4.18a1.5 1.5 0 0 1 1.32.81l.07.14.03.04a3 3 0 0 0 5.66 0l.03-.04.07-.14a1.39 1.39 0 0 1 .64-.64l.15-.07c.17-.07.34-.1.53-.1h4.18zm2.58 9h-3.82a6 6 0 0 1-10.38 0h-3.82v6h18.02z"/></defs><use xlink:href="#ca" transform="translate(-706 -1153)"/></symbol><symbol viewBox="0 0 26 25" id="inbox-icon-gradient" xmlns="http://www.w3.org/2000/svg"><defs><path id="da" d="M185.99 2197H168a3 3 0 0 1-3-3v-7.51c0-.16.03-.32.07-.48l2.77-8.3a2.62 2.62 0 0 1 2.42-1.72h13.48c1.09.01 2.05.7 2.42 1.73l2.76 8.3c.05.14.08.3.08.47v7.51a3 3 0 0 1-3.01 2.99zm-2.57-18h-12.84l-2 6h4.18a1.52 1.52 0 0 1 1.31.82l.08.13.02.05a3 3 0 0 0 5.66 0l.02-.05.08-.13a1.4 1.4 0 0 1 .64-.64l.15-.08c.16-.06.34-.1.52-.1h4.18zm2.58 9h-3.81a5.98 5.98 0 0 1-10.38 0H168v6.01l.01-.01H186l.01.01z"/></defs><use xlink:href="#da" transform="translate(-164 -2174)"/></symbol><symbol viewBox="0 0 19 16" id="menu-icon" xmlns="http://www.w3.org/2000/svg"><defs><path id="ea" d="M1305 45c0-.52-.4-.95-1-1h-14c-.6.05-1 .48-1 1a1 1 0 0 0 1 1h14a1 1 0 0 0 1-1zm0-5c0-.52-.4-.95-1-1h-14c-.6.05-1 .48-1 1a1 1 0 0 0 1 1h14a1 1 0 0 0 1-1zm-16 10a1 1 0 0 0 1 1h14a1 1 0 0 0 1-1c0-.52-.4-.95-1-1h-14c-.6.05-1 .48-1 1z"/></defs><use xlink:href="#ea" transform="translate(-1287 -37)"/></symbol><symbol viewBox="0 0 28 27" id="notifications-icon" xmlns="http://www.w3.org/2000/svg"><defs><path id="fa" d="M1131.93 1172.97a1.5 1.5 0 0 1-1.44 1.03h-7.5a3 3 0 1 1-5.99 0h-7.5a1.5 1.5 0 0 1-.9-2.7 5.98 5.98 0 0 0 2.4-4.8v-4.5a9 9 0 1 1 18 0v4.5c0 1.89.89 3.67 2.4 4.8.52.39.73 1.06.53 1.67zm-5.68-6.46v-4.5a6.25 6.25 0 0 0-12.5 0v4.5c0 1.58-.42 3.14-1.24 4.5h15a8.74 8.74 0 0 1-1.26-4.5z"/></defs><use xlink:href="#fa" transform="translate(-1106 -1151)"/></symbol><symbol viewBox="0 0 27 27" id="reload-icon" xmlns="http://www.w3.org/2000/svg"><defs><path id="ga" d="M331.26 1162h-6.8c-.83 0-1.03-.47-.43-1.06l2.31-2.3a9.05 9.05 0 0 0-15.35 5.21s-.18 1.15-1.48 1.15a1.5 1.5 0 0 1-1.47-1.83 12.04 12.04 0 0 1 11.9-10.17c3.34 0 6.35 1.34 8.53 3.52l2.47-2.46c.59-.59 1.06-.38 1.06.43v6.78c0 .4-.35.73-.74.73zm-22.52 6h6.8c.83 0 1.03.47.43 1.07l-2.31 2.3a9.03 9.03 0 0 0 6.4 2.63c4.6 0 8.4-3.42 8.96-7.85 0 0 .17-1.15 1.48-1.15a1.5 1.5 0 0 1 1.46 1.83 12.04 12.04 0 0 1-11.9 10.17c-3.34 0-6.35-1.34-8.53-3.51l-2.47 2.46c-.59.58-1.06.37-1.06-.43v-6.78c0-.41.35-.74.74-.74z"/></defs><use xlink:href="#ga" transform="translate(-306 -1152)"/></symbol><symbol viewBox="0 0 27 27" id="reload-icon-gradient" xmlns="http://www.w3.org/2000/svg"><defs><path id="ha" d="M188.26 2024h-6.8c-.83 0-1.03-.47-.43-1.06l2.31-2.3a9.05 9.05 0 0 0-15.35 5.21s-.18 1.15-1.48 1.15a1.5 1.5 0 0 1-1.47-1.83 12.04 12.04 0 0 1 11.9-10.17c3.34 0 6.35 1.34 8.53 3.52l2.47-2.46c.59-.59 1.06-.38 1.06.43v6.78c0 .4-.35.73-.74.73zm-22.52 6h6.8c.83 0 1.03.47.43 1.07l-2.31 2.3a9.03 9.03 0 0 0 6.4 2.63c4.6 0 8.4-3.42 8.96-7.85 0 0 .17-1.15 1.48-1.15a1.5 1.5 0 0 1 1.46 1.83 12.04 12.04 0 0 1-11.9 10.17c-3.34 0-6.35-1.34-8.53-3.51l-2.47 2.46c-.59.58-1.06.38-1.06-.44v-6.77c0-.41.35-.74.74-.74z"/></defs><use xlink:href="#ha" transform="translate(-164 -2014)"/></symbol><symbol viewBox="0 0 18 16" id="twitter-icon" xmlns="http://www.w3.org/2000/svg"><defs><path id="ia" d="M1173.37 5580.66c0 4.34-3.3 9.34-9.34 9.34a9.3 9.3 0 0 1-5.03-1.47c.26.02.52.04.78.04 1.49 0 2.93-.5 4.08-1.4a3.28 3.28 0 0 1-3.07-2.28 3.22 3.22 0 0 0 1.49-.06 3.28 3.28 0 0 1-2.64-3.22c.46.21.97.35 1.5.37a3.3 3.3 0 0 1-1.03-4.38 9.31 9.31 0 0 0 6.77 3.43 3.28 3.28 0 0 1 5.6-3 6.46 6.46 0 0 0 2.08-.79c-.24.76-.75 1.4-1.45 1.81a6.53 6.53 0 0 0 1.89-.51c-.44.65-1 1.23-1.64 1.7l.01.42z"/></defs><use xlink:href="#ia" transform="translate(-1158 -5575)"/></symbol></svg>