<svg xmlns="http://www.w3.org/2000/svg" xmlns:xlink="http://www.w3.org/1999/xlink" width="26" height="25"
     viewBox="0 0 26 25">
    <defs>
        <path id="idh3a"
              d="M185.99 2197H168A3 3 0 0 1 165 2194v-7.51c0-.16.03-.32.07-.48l2.77-8.3a2.62 2.62 0 0 1 2.42-1.72h13.48c1.09.01 2.05.7 2.42 1.73l2.76 8.3c.05.14.08.3.08.47v7.51a3 3 0 0 1-3.01 2.99zm-2.57-18h-12.84l-2 6h4.18a1.52 1.52 0 0 1 1.31.82l.08.13.02.05a3 3 0 0 0 5.66 0l.02-.05.08-.13a1.4 1.4 0 0 1 .64-.64l.15-.08c.16-.06.34-.1.52-.1h4.18zm2.58 9h-3.81a5.98 5.98 0 0 1-10.38 0H168v6.01l.01-.01H186l.01.01z"/>
    </defs>
    <g>
        <g transform="translate(-164 -2174)">
            <use fill="url(#idh3b)" xlink:href="#idh3a"/>
        </g>
    </g>
</svg>